<?xml version="1.0" standalone="no"?><svg xmlns="http://www.w3.org/2000/svg" viewBox="0 0 1440 320"><path fill="#84cc64" fill-opacity="1" d="M0,32L30,64C60,96,120,160,180,181.3C240,203,300,181,360,149.3C420,117,480,75,540,53.3C600,32,660,32,720,74.7C780,117,840,203,900,213.3C960,224,1020,160,1080,128C1140,96,1200,96,1260,106.7C1320,117,1380,139,1410,149.3L1440,160L1440,320L1410,320C1380,320,1320,320,1260,320C1200,320,1140,320,1080,320C1020,320,960,320,900,320C840,320,780,320,720,320C660,320,600,320,540,320C480,320,420,320,360,320C300,320,240,320,180,320C120,320,60,320,30,320L0,320Z"></path></svg>